<?xml version="1.0" encoding="utf-8"?>
<!-- Generator: Adobe Illustrator 23.0.0, SVG Export Plug-In . SVG Version: 6.00 Build 0)  -->
<svg version="1.1" id="Layer_1" xmlns="http://www.w3.org/2000/svg" xmlns:xlink="http://www.w3.org/1999/xlink" x="0px" y="0px"
	 viewBox="0 0 45 49" style="enable-background:new 0 0 45 49;" xml:space="preserve">
<style type="text/css">
	.st0{fill:#2c7bbc;}
</style>
<title>Asset 14</title>
<g>
	<g id="Layer_1-2">
		<path class="st0" d="M29,49C23,49,0,33.7,0,25c0-3.3,2.7-6,6-6c7.4,0,27,21.6,27,26C33,47.2,31.2,49,29,49z M6,21
			c-2.2,0-4,1.8-4,4c0,7,21.2,22,27,22c1.1,0,2-0.9,2-2C31,42.5,12.7,21,6,21z"/>
		<path class="st0" d="M31.8,47.8l-1.4-1.4l12-12c0.7-0.7,0.8-1.8,0.2-2.6c-10.7-15.6-20.1-21-22.7-22.4c-1.6-0.9-3.7-0.6-4.9,0.8
			L3.3,22l-1.4-1.4L13.6,8.9c1.9-2,4.9-2.5,7.3-1.2c2.7,1.4,12.4,7,23.4,23c1.1,1.6,0.9,3.7-0.5,5.1L31.8,47.8z"/>
		<path class="st0" d="M22.6,27.8l-0.7-0.7c-2.8-2.8-5.8-5.4-9.1-7.6l-1.1-0.7l7.5-7.5l0.7,0.4c3.6,2.1,6.9,4.6,9.8,7.6l0.7,0.7
			L22.6,27.8z M14.9,18.6c2.7,1.9,5.3,4.1,7.7,6.5l5-5c-2.4-2.3-5.1-4.4-8-6.2L14.9,18.6z"/>
		<polygon class="st0" points="28,29 26,29 26,31 28,31 28,29 		"/>
		<polygon class="st0" points="31,26 29,26 29,28 31,28 31,26 		"/>
		<polygon class="st0" points="34,23 32,23 32,25 34,25 34,23 		"/>
		<polygon class="st0" points="31,33 29,33 29,35 31,35 31,33 		"/>
		<polygon class="st0" points="34,30 32,30 32,32 34,32 34,30 		"/>
		<polygon class="st0" points="37,27 35,27 35,29 37,29 37,27 		"/>
		<polygon class="st0" points="34,37 32,37 32,39 34,39 34,37 		"/>
		<polygon class="st0" points="37,34 35,34 35,36 37,36 37,34 		"/>
		<polygon class="st0" points="40,31 38,31 38,33 40,33 40,31 		"/>
		<path class="st0" d="M8,11H6c0-3.9,3.1-7,7-7v2C10.2,6,8,8.2,8,11z"/>
		<path class="st0" d="M4,11H2C2,4.9,6.9,0,13,0v2C8,2,4,6,4,11z"/>
	</g>
</g>
</svg>
