<svg xmlns="http://www.w3.org/2000/svg" viewBox="0 0 170.08 113.39"><defs><style>.cls-1{fill:#fff;}.cls-2{fill:#f30004;}.cls-3{fill:#0132bf;}</style></defs><title>US Flag</title><g id="Layer_2" data-name="Layer 2"><g id="Layer_1-2" data-name="Layer 1"><rect class="cls-1" width="170.08" height="113.39"/><path class="cls-2" d="M0,104.66H170.08v8.73H0v-8.73ZM0,0H170.08V8.72H0V0ZM0,17.44H170.08v8.73H0V17.44ZM0,34.89H170.08v8.72H0V34.89ZM0,52.33H170.08v8.72H0V52.33ZM0,69.78H170.08V78.5H0V69.78ZM0,87.22H170.08V96H0Z"/><rect class="cls-3" width="86.17" height="61.05"/><path class="cls-1" d="M79.59,17.2l-.79-2.41L78,17.2H75.48l2.06,1.49-.79,2.42,2-1.49,2.06,1.49-.79-2.42,2.05-1.49ZM8.64,6.45l2-1.49H8.15L7.37,2.54,6.59,5H4.05L6.1,6.45,5.32,8.86,7.37,7.37,9.42,8.86,8.64,6.45Zm14.29,0L25,5H22.44l-.78-2.42L20.87,5H18.34l2.05,1.49L19.6,8.86l2.06-1.49,2.05,1.49-.78-2.41Zm14.28,0L39.27,5H36.73l-.79-2.42L35.16,5H32.62l2.06,1.49-.79,2.41,2-1.49L38,8.86l-.79-2.41Zm14.29,0,2-1.49H51l-.78-2.42L49.45,5H46.91L49,6.45l-.78,2.41,2-1.49,2.05,1.49L51.5,6.45ZM16.16,49l2.06-1.5H15.68l-.79-2.41-.78,2.41H11.57L13.63,49l-.79,2.41,2.06-1.49,2,1.49L16.16,49Zm-.28-11.9,2-1.49H15.4l-.79-2.41-.78,2.41H11.29l2.05,1.49-.78,2.42,2-1.5,2.05,1.5-.78-2.42ZM16,25.29,18,23.8H15.47l-.78-2.42L13.9,23.8H11.36l2.06,1.49-.79,2.41,2.06-1.49,2,1.49L16,25.29ZM65.79,6.45l2-1.49H65.3l-.78-2.42L63.73,5H61.2l2,1.49-.79,2.41,2.06-1.49,2,1.49-.78-2.41Zm14.28,0L82.12,5H79.59L78.8,2.54,78,5H75.48l2.06,1.49-.79,2.41,2-1.49,2.06,1.49-.79-2.41ZM30.24,25.29l2.05-1.49H29.76L29,21.38l-.78,2.42H25.65l2.06,1.49-.79,2.41,2-1.49L31,27.7l-.79-2.41Zm-.07,11.83,2-1.49H29.68l-.78-2.41-.79,2.41H25.58l2.05,1.49-.78,2.42,2-1.5L31,39.54l-.78-2.42ZM30.45,49l2.05-1.5H30l-.79-2.41-.78,2.41H25.86L27.91,49l-.78,2.41,2.05-1.49,2.05,1.49L30.45,49Zm-1.27-.42ZM44.74,49l2-1.5H44.25l-.78-2.41-.78,2.41H40.15L42.2,49l-.78,2.41,2-1.49,2.05,1.49L44.74,49Zm-.29-11.9,2.06-1.49H44l-.78-2.41-.79,2.41H39.86l2.06,1.49-.79,2.42L43.19,38l2.05,1.5-.79-2.42Zm.08-11.83,2-1.49H44l-.78-2.42-.79,2.42H39.94L42,25.29l-.78,2.41,2-1.49,2.05,1.49-.78-2.41ZM15.78,12.57l2-1.49H15.3l-.79-2.41-.78,2.41H11.19l2.06,1.49L12.46,15l2-1.49,2,1.49-.78-2.41Zm14.29,0,2-1.49H29.58L28.8,8.67,28,11.08H25.48l2.05,1.49L26.75,15l2.05-1.49L30.85,15l-.78-2.41ZM58.81,25.29l2.06-1.49H58.33l-.78-2.42-.79,2.42H54.22l2.06,1.49-.79,2.41,2-1.49L59.6,27.7l-.79-2.41Zm-.07,11.83,2-1.49H58.26l-.79-2.41-.78,2.41H54.15l2.05,1.49-.78,2.42,2-1.5,2.06,1.5-.79-2.42ZM59,49l2.06-1.5H58.54l-.78-2.41L57,47.52H54.43L56.49,49l-.79,2.41,2-1.49,2.06,1.49L59,49Zm14.29,0,2-1.5H72.83L72,45.11l-.78,2.41H68.72l2,1.5L70,51.43,72,49.94l2.06,1.49L73.31,49ZM73,37.12l2-1.49H72.54l-.78-2.41L71,35.63H68.44l2,1.49-.78,2.42L71.76,38l2,1.5L73,37.12Zm.07-11.83,2.05-1.49H72.62l-.79-2.42-.78,2.42H68.51l2,1.49-.78,2.41,2-1.49,2,1.49-.78-2.41ZM44.36,12.57l2-1.49H43.87l-.78-2.41-.79,2.41H39.77l2,1.49L41,15l2.05-1.49,2,1.49-.78-2.41Zm14.28,0,2.06-1.49H58.16l-.79-2.41-.78,2.41H54.05l2.06,1.49L55.32,15l2-1.49L59.43,15l-.79-2.41Zm14.29,0,2-1.49H72.44l-.78-2.41-.78,2.41H68.34l2,1.49L69.61,15l2-1.49,2,1.49-.78-2.41ZM9,55.14l2.05-1.49H8.54l-.79-2.42L7,53.65H4.43l2.05,1.49L5.7,57.55l2.05-1.49L9.8,57.55,9,55.14Zm-.28-11.9,2-1.49H8.25l-.78-2.41-.79,2.41H4.15L6.2,43.24l-.78,2.42,2.05-1.5,2.05,1.5-.78-2.42Zm.07-11.83,2.06-1.49H8.33l-.79-2.41-.78,2.41H4.22l2.05,1.49-.78,2.41,2.05-1.49,2.05,1.49-.78-2.41Zm14.29,0,2-1.49H22.62l-.79-2.41L21,29.92H18.51l2,1.49-.78,2.41,2-1.49,2.05,1.49-.78-2.41ZM23,43.24l2.06-1.49H22.54l-.79-2.41L21,41.75H18.43l2.06,1.49-.79,2.42,2.05-1.5,2.06,1.5L23,43.24Zm.29,11.9,2.05-1.49H22.82L22,51.23l-.78,2.42H18.72l2.05,1.49L20,57.55,22,56.06l2.05,1.49-.78-2.41Zm14.28,0,2.06-1.49H37.11l-.79-2.42-.78,2.42H33l2.06,1.49-.79,2.41,2.06-1.49,2.05,1.49-.79-2.41Zm-.28-11.9,2-1.49H36.82L36,39.34l-.78,2.41H32.72l2.05,1.49L34,45.66l2-1.5,2.05,1.5-.78-2.42Zm.07-11.83,2.06-1.49H36.9l-.78-2.41-.79,2.41H32.79l2.06,1.49-.79,2.41,2.06-1.49,2.05,1.49-.79-2.41ZM8.64,18.69l2-1.49H8.16l-.79-2.41L6.59,17.2H4.05L6.1,18.69l-.78,2.42,2.05-1.49,2.05,1.49-.78-2.42Zm14.29,0L25,17.2H22.44l-.78-2.41-.79,2.41H18.34l2.05,1.49-.79,2.42,2.06-1.49,2.05,1.49-.78-2.42ZM51.67,31.41l2-1.49H51.19l-.79-2.41-.78,2.41H47.08l2.05,1.49-.78,2.41,2-1.49,2.06,1.49-.79-2.41ZM51.6,43.24l2-1.49H51.11l-.78-2.41-.79,2.41H47l2.05,1.49-.78,2.42,2-1.5,2.05,1.5-.78-2.42Zm.28,11.9,2-1.49H51.4l-.79-2.42-.78,2.42H47.29l2.05,1.49-.78,2.41,2-1.49,2,1.49-.78-2.41Zm14.29,0,2-1.49H65.68l-.78-2.42-.78,2.42H61.58l2.05,1.49-.78,2.41,2.05-1.49,2,1.49-.78-2.41Zm14.29,0,2.05-1.49H80l-.78-2.42-.79,2.42H75.87l2,1.49-.79,2.41,2.06-1.49,2,1.49-.78-2.41ZM65.88,43.24l2.06-1.49H65.4l-.78-2.41-.79,2.41H61.29l2.06,1.49-.79,2.42,2.06-1.5,2,1.5-.79-2.42Zm14.29,0,2-1.49H79.69l-.79-2.41-.78,2.41H75.58l2,1.49-.78,2.42,2.05-1.5,2,1.5-.78-2.42ZM66,31.41,68,29.92H65.47l-.78-2.41-.79,2.41H61.37l2.05,1.49-.78,2.41,2-1.49,2,1.49L66,31.41Zm14.28,0,2.06-1.49H79.76L79,27.51l-.79,2.41H75.65l2.06,1.49-.79,2.41L79,32.33l2,1.49-.79-2.41Zm-43-12.72,2.06-1.49H36.73l-.79-2.41-.78,2.41H32.62l2.06,1.49-.79,2.42,2-1.49L38,21.11l-.79-2.42Zm14.29,0,2-1.49H51l-.78-2.41-.78,2.41H46.91L49,18.69l-.78,2.42,2-1.49,2.05,1.49-.78-2.42Zm14.29,0,2-1.49H65.3l-.78-2.41-.79,2.41H61.2l2,1.49-.79,2.42,2.06-1.49,2,1.49Z"/></g></g></svg>