<svg xmlns="http://www.w3.org/2000/svg" viewBox="0 0 170.08 113.39"><defs><style>.cls-1{fill:#fff;}.cls-2,.cls-3{fill:#f30004;}.cls-3{fill-rule:evenodd;}</style></defs><title>Canada</title><g id="Layer_2" data-name="Layer 2"><g id="Layer_1-2" data-name="Layer 1"><rect class="cls-1" x="42.46" width="85.17" height="113.39"/><rect class="cls-2" width="42.46" height="113.39"/><rect class="cls-2" x="127.63" width="42.45" height="113.39"/><path class="cls-3" d="M51.8,57.5,66.92,70.6c2.78,2.41.63,4.86-.7,7.19l17.35-2.14L83,93h3.74L86,75.65l17.36,2.14c-1.25-2.49-2.75-5.52-.13-7.74L118,57.5c-1.42-.57-3.1-.78-3.43-2.38-.57-2.72,1.55-8.34,2.61-11.37-3,1.22-6.93,2.15-9.48,1.89-1.39-.14-2.19-3.73-2.77-5l-7.8,8.27c-2.08,2.19-2.87,1.17-2.28-1.64l3.65-17.57L93.3,32.68c-1.54.87-2,1-2.91-.82L84.91,20.65,79.28,31.9c-.87,1.75-1,1.79-2.6.89L71.56,30,74.7,47.37c.49,2.75,0,3.75-2.21,1.36l-7.34-8.06c-.71,1.89-1.6,4.28-2.94,5.08-1.6.53-6.14-1-9.34-1.87,1,3,3.47,8.12,3,10.92C55.62,56.61,53.44,56.86,51.8,57.5Z"/></g></g></svg>