<svg xmlns="http://www.w3.org/2000/svg" viewBox="0 0 28.01 23.155">
  <defs>
    <style>
      .cls-1 {
        fill: #c53933;
        stroke: #c53933;
        stroke-width: 0.25px;
      }
    </style>
  </defs>
  <g id="QSR" transform="translate(0.125 0.149)">
    <g id="Layer_1" data-name="Layer 1">
      <path id="Path_1144" data-name="Path 1144" class="cls-1" d="M27.27,6.18H20.93V2.29L24.19.88a.49.49,0,0,0,.26-.6A.51.51,0,0,0,23.86,0L20.3,1.54A.44.44,0,0,0,20,2V6.18H14a.5.5,0,0,0,0,1h1.63a.62.62,0,0,0-.08.29l1.23,15a.48.48,0,0,0,.44.41h6.83a.43.43,0,0,0,.45-.41l1.22-15a1,1,0,0,0-.07-.29h1.63a.5.5,0,0,0,.48-.49.53.53,0,0,0-.49-.51ZM24.82,7.3,23.64,21.8h-6L16.48,7.3a.53.53,0,0,0-.08-.23h8.5a.53.53,0,0,0-.08.23Z"/>
      <path id="Path_1145" data-name="Path 1145" class="cls-1" d="M8.39,11.19H6.09A6.12,6.12,0,0,0,0,17.28a.45.45,0,0,0,.15.33.45.45,0,0,0,.33.15H14a.49.49,0,0,0,.48-.48,6.15,6.15,0,0,0-6.09-6.09ZM1,16.83a5.17,5.17,0,0,1,5.13-4.71h2.3a5.17,5.17,0,0,1,5.12,4.67Z"/>
      <path id="Path_1146" data-name="Path 1146" class="cls-1" d="M14,19.8H.56a.5.5,0,0,0-.49.48v2a.5.5,0,0,0,.49.49H14a.5.5,0,0,0,.48-.49v-2A.46.46,0,0,0,14,19.8Zm-.49,2H1V20.73H13.5Z"/>
    </g>
  </g>
</svg>
