<svg xmlns="http://www.w3.org/2000/svg" viewBox="0 0 29.196 15.323">
  <defs>
    <style>
      .cls-1 {
        fill: #58585a;
        stroke: #58585a;
        stroke-miterlimit: 10;
        stroke-width: 0.75px;
      }
    </style>
  </defs>
  <g id="Fine_Dining" data-name="Fine Dining" transform="translate(0.135 0.125)">
    <g id="Layer_1" data-name="Layer 1" transform="translate(0.242 0.25)">
      <path id="Path_232" data-name="Path 232" class="cls-1" d="M28.372,16.59H.555a.289.289,0,0,0-.306.349.3.3,0,0,0,.306.315H28.372a.332.332,0,1,0,0-.664Z" transform="translate(-0.242 -2.682)"/>
      <path id="Path_233" data-name="Path 233" class="cls-1" d="M2.6,13.043H23.455a.306.306,0,1,0,0-.613H4.669a10.122,10.122,0,1,1,20.241.306.289.289,0,0,0,.306.306h1.7a.306.306,0,1,0,0-.613H25.531A10.767,10.767,0,0,0,15.794,2.046a1.03,1.03,0,0,0,.187-.621,1.175,1.175,0,1,0-2.349,0,1.107,1.107,0,0,0,.187.621A10.767,10.767,0,0,0,4.082,12.43H2.626a.289.289,0,0,0-.306.306.281.281,0,0,0,.281.306ZM14.815.888a.553.553,0,1,1-.553.553.553.553,0,0,1,.553-.553Z" transform="translate(-0.551 -0.25)"/>
    </g>
  </g>
</svg>
