<?xml version="1.0" encoding="utf-8"?>
<!-- Generator: Adobe Illustrator 23.0.0, SVG Export Plug-In . SVG Version: 6.00 Build 0)  -->
<svg version="1.1" id="Layer_1" xmlns="http://www.w3.org/2000/svg" xmlns:xlink="http://www.w3.org/1999/xlink" x="0px" y="0px"
	 viewBox="0 0 67.2 48" style="enable-background:new 0 0 67.2 48;" xml:space="preserve">
<style type="text/css">
	.st0{fill:#FFFFFF;stroke:#585858;stroke-miterlimit:10;}
	.st1{fill:none;stroke:#585858;stroke-width:2.58;stroke-miterlimit:10;}
	.st2{fill:#585858;}
</style>
<title>Icon-Solution-Payment Online</title>
<g>
	<g id="Layer_3">
		<polygon class="st0" points="51.3,36.2 15.9,36.2 13.4,38.7 53.8,38.7 		"/>
		<path class="st1" d="M57.1,33.3v-32h-47v32l-8.8,8.8v4.6h64.6v-4.6L57.1,33.3z M50.3,31.8H16.9V8h33.4L50.3,31.8z"/>
		<path class="st2" d="M34.1,24.6c1.2-0.1,2.1-0.7,2.1-2.1c0-1.2-0.9-1.7-2.1-2V24.6z M33.2,15c-1,0-1.9,0.9-1.9,1.9
			c0,0,0,0.1,0,0.1c0,1.2,0.8,1.5,1.9,1.8V15z M30.9,22c0,1.3,1,2.4,2.3,2.5v-4.2c-2.3-0.5-3.3-1.2-3.3-3.1c0-1.9,1.5-3.4,3.3-3.4
			v-1.1h0.9v1.1c1.8,0.2,2.8,1.4,3.2,3.2h-1.4c-0.1-1-0.9-1.7-1.8-1.9v4l1,0.3c1.4,0.3,2.5,1.5,2.6,3c0,2.1-1.5,3.4-3.6,3.5v1.3
			h-0.9v-1.3c-2-0.1-3.7-1.8-3.7-3.8L30.9,22z"/>
	</g>
</g>
</svg>
