<svg id="Food_Truck" data-name="Food Truck" xmlns="http://www.w3.org/2000/svg" viewBox="0 0 28.679 18.646">
  <defs>
    <style>
      .cls-1 {
        fill: #58585a;
        stroke: #58585a;
        stroke-miterlimit: 10;
        stroke-width: 0.5px;
      }
    </style>
  </defs>
  <g id="Layer_1" data-name="Layer 1" transform="translate(0.25 0.25)">
    <path id="Path_1147" data-name="Path 1147" class="cls-1" d="M23.7,18.4a2.806,2.806,0,0,1-2.789-2.781H12.463a2.823,2.823,0,0,1-.744,1.868,2.747,2.747,0,0,1-2.071.913,2.789,2.789,0,0,1-2.079-.938A2.755,2.755,0,0,1,6.8,15.615H1.1A.845.845,0,0,1,.25,14.77V1.1A.845.845,0,0,1,1.1.25H19.748a.845.845,0,0,1,.845.845V4.163h3.034a.98.98,0,0,1,.693.3l3.913,5.113a.794.794,0,0,1,.194.558v4.708a.845.845,0,0,1-.845.845h-1.1a2.848,2.848,0,0,1-.752,1.859A2.772,2.772,0,0,1,23.7,18.4ZM11.871,15.015h9.72v.33a2.206,2.206,0,0,0,.541,1.69,2.231,2.231,0,0,0,3.854-1.69v-.321h1.733a.245.245,0,0,0,.254-.22V10.1a.237.237,0,0,0-.051-.169l-3.9-5.071a.363.363,0,0,0-.245-.093H20.137V1.1a.245.245,0,0,0-.254-.254H1.1A.245.245,0,0,0,.842,1.1V14.8a.245.245,0,0,0,.254.22H7.476l-.042.33a2.2,2.2,0,0,0,3.82,1.716,2.282,2.282,0,0,0,.617-1.724ZM23.7,17.289a1.69,1.69,0,1,1,1.69-1.69A1.69,1.69,0,0,1,23.7,17.289Zm0-2.814a1.116,1.116,0,1,0,1.019,1.111A1.116,1.116,0,0,0,23.7,14.474ZM9.615,17.3a1.69,1.69,0,1,1,1.69-1.69A1.69,1.69,0,0,1,9.615,17.3Zm0-2.814a1.116,1.116,0,1,0,0,2.223,1.116,1.116,0,1,0,0-2.223ZM10.46,4.121A1.056,1.056,0,0,1,9.682,3.8a1,1,0,0,1-.347-.727V2.025h2.172V3.073a1.023,1.023,0,0,1-.321.727,1.09,1.09,0,0,1-.761.321Zm-.482-1.5v.456a.431.431,0,0,0,.118.313.516.516,0,0,0,.718,0,.456.456,0,0,0,.152-.313V2.616ZM5.11,4.121A1.056,1.056,0,0,1,4.332,3.8,1,1,0,0,1,4,3.073V2.025H6.166V3.073a1.023,1.023,0,0,1-.287.727A1.09,1.09,0,0,1,5.11,4.121Zm-.524-1.5v.456a.456.456,0,0,0,.152.347.516.516,0,0,0,.718,0,.406.406,0,0,0,.118-.313v-.49Zm-2.164,1.5A1.056,1.056,0,0,1,1.645,3.8a1,1,0,0,1-.3-.727V2.025H3.521V3.073a1,1,0,0,1-.33.727,1.056,1.056,0,0,1-.769.321Zm-.482-1.5v.456a.431.431,0,0,0,.118.347.516.516,0,0,0,.718,0,.456.456,0,0,0,.152-.313v-.49Zm5.815,1.5A1.116,1.116,0,0,1,6.969,3.8a1,1,0,0,1-.3-.727V2.025H8.845V3.073a1.023,1.023,0,0,1-.321.727,1.014,1.014,0,0,1-.735.321Zm-.49-1.5v.456a.431.431,0,0,0,.118.347.532.532,0,0,0,.389.144.507.507,0,0,0,.482-.456v-.49Zm8.494,1.5a1.116,1.116,0,0,1-.786-.321,1,1,0,0,1-.3-.727V2.025h2.172V3.073a.989.989,0,0,1-.33.727.98.98,0,0,1-.727.321Zm-.507-1.5v.456a.431.431,0,0,0,.118.313.566.566,0,0,0,.389.144.448.448,0,0,0,.338-.11.465.465,0,0,0,.161-.321V2.616Zm3.161,1.5a1.065,1.065,0,0,1-.778-.321,1,1,0,0,1-.3-.727V2.025h2.172V3.073a1.133,1.133,0,0,1-.355.761,1.056,1.056,0,0,1-.727.287Zm-.482-1.5v.456a.431.431,0,0,0,.118.313.516.516,0,0,0,.718,0c.051,0,.118-.1.161-.355V2.616Zm-4.826,1.5a1.065,1.065,0,0,1-.778-.321A.989.989,0,0,1,12,3.073V2.025H14.17V3.073a.989.989,0,0,1-.287.727,1.082,1.082,0,0,1-.778.321Zm-.516-1.5v.456a.456.456,0,0,0,.127.347.516.516,0,0,0,.718,0,.406.406,0,0,0,.127-.347V2.616Z" transform="translate(-0.25 -0.25)"/>
    <rect id="Rectangle_400" data-name="Rectangle 400" class="cls-1" width="0.676" height="10.818" transform="translate(20.445 4.04)"/>
    <rect id="Rectangle_401" data-name="Rectangle 401" class="cls-1" width="6.761" height="0.676" transform="translate(20.783 8.773)"/>
    <rect id="Rectangle_402" data-name="Rectangle 402" class="cls-1" width="19.608" height="0.423" transform="translate(0.499 1.758)"/>
  </g>
</svg>
