<svg xmlns="http://www.w3.org/2000/svg" viewBox="0 0 27.359 18.714">
  <defs>
    <style>
      .cls-1 {
        fill: #257150;
        stroke: #257150;
        stroke-width: 0.125px;
      }
    </style>
  </defs>
  <g id="Casual_Dining" data-name="Casual Dining" transform="translate(0.072 0.082)">
    <g id="Layer_1" data-name="Layer 1">
      <path id="Path_1141" data-name="Path 1141" class="cls-1" d="M9.66,10.06H3.24a.62.62,0,0,1-.62-.57L1.14.46A.58.58,0,0,0,.46,0,.56.56,0,0,0,0,.63L1.48,9.71a1.81,1.81,0,0,0,1.76,1.48H5.68v6.19H3.47a.57.57,0,1,0,0,1.13H9a.57.57,0,1,0,0-1.13H6.82V11.19H9.66a.54.54,0,0,0,.57-.57.57.57,0,0,0-.57-.56Z"/>
      <path id="Path_1142" data-name="Path 1142" class="cls-1" d="M26.8,0a.58.58,0,0,0-.68.45L24.64,9.54a.66.66,0,0,1-.62.57H17.6a.57.57,0,1,0,0,1.14h2.84v6.18H18.23a.57.57,0,1,0,0,1.14h5.56a.57.57,0,0,0,0-1.14H21.58V11.19H24a1.81,1.81,0,0,0,1.76-1.48L27.2.63A.49.49,0,0,0,26.8,0Z"/>
      <path id="Path_1143" data-name="Path 1143" class="cls-1" d="M8.52,5.23H5.34a.53.53,0,0,0-.56.57.53.53,0,0,0,.56.57h5.45L12,17.89a.62.62,0,0,0,.57.51h2a.6.6,0,0,0,.56-.51L16.47,6.31h5.45a.54.54,0,0,0,.57-.57.54.54,0,0,0-.57-.57H18.85m-1.08.06H9.6m4.48,12h-1L11.93,6.31h3.4Z"/>
    </g>
  </g>
</svg>
